<?xml version="1.0" encoding="UTF-8"?><svg id="Layer_2" xmlns="http://www.w3.org/2000/svg" width="600" height="200" xmlns:xlink="http://www.w3.org/1999/xlink" viewBox="0 0 600 200"><defs><clipPath id="clippath"><rect width="600" height="200" fill="none"/></clipPath><clipPath id="clippath-1"><rect x=".0003662" y=".0001831" width="600" height="200" fill="none"/></clipPath><clipPath id="clippath-2"><rect x=".0003662" y=".0001831" width="600" height="200" fill="none"/></clipPath><clipPath id="clippath-3"><rect x="160" y="49.1556014" width="280" height="101.6887972" fill="none"/></clipPath><clipPath id="clippath-4"><rect x="160" y="49.1562024" width="280" height="101.6881963" fill="none"/></clipPath></defs><g id="Layer_1-2"><g clip-path="url(#clippath)"><g clip-path="url(#clippath-1)"><g clip-path="url(#clippath-2)"><image width="1250" height="417" transform="translate(0 -.16) scale(.48)" xlink:href=""/></g></g></g><g id="Logotype"><g clip-path="url(#clippath-3)"><g clip-path="url(#clippath-4)"><path d="M242.305956,87.3746744c-.4167787.2073928-.735844.5683353-.8893936,1.0070491l-3.8686751,11.0835419c-.1395906.3509733-.1236309.510506-.512499.510506h-1.0269911c-.3908536,0-.3749015-.1595326-.5144921-.510506l-3.8686675-11.0835419c-.1535496-.4387138-.4726149-.7996563-.8894012-1.0070491-.2472693-.1236385-.5224644-.1874508-.7996525-.1874508h-4.6802935l8.1840324,17.393063h6.1619544l8.2159367-17.393063h-4.7121978c-.2771881,0-.5523831.0638123-.7996601.1874508Z" fill="#24282b"/><path d="M329.2631008,107.4740146l3.2863808-1.8705214v7.1610274h-4.6224642v-2.9992159c0-.6999498.2791812-1.3699884.7777211-1.8665353.1655156-.1655156.3529702-.3090924.5583623-.4247548" fill="#24282b"/><path d="M234.620669,108.1610019h3.8008653c.4048203,0,.773735.237304.9372576.6082194l1.782781,3.9962959h-9.2429354l1.782781-3.9962959c.1655156-.3709154.5324449-.6082194.9392507-.6082194" fill="#24282b"/><path d="M296.8879135,112.2721614c-.5184858-.3449903-.9153187-.8435303-1.1306913-1.4278177l-6.7701662-18.3023986c-.0578293-.1575396-.1475781-.3011201-.2672228-.4187756-.2133796-.2133758-.5025261-.3330243-.8036462-.3330243h-.0857474c-.3011201,0-.5902742.1196485-.8036462.3330243-.1196523.1176555-.2093859.261236-.2672152.4187756l-6.7701738,18.3023986c-.2173657.5842874-.6122055,1.0828274-1.1306913,1.4278177-.4845809.3210583-1.0529162.492557-1.6352105.492557h-3.7290769l11.306883-25.5890614,6.1539822.011966,11.2969177,25.5770954h-3.7290845c-.5822943,0-1.1506372-.1714986-1.6352105-.492557" fill="#24282b"/><path d="M350.522435,104.5792901v8.1860255h-2.8696021c-.4646275,0-.9093243-.1834608-1.2383625-.512499-.3270451-.3290344-.5125066-.7717382-.5125066-1.2343839v-5.9266435c0-2.0460062-1.0289842-3.0670182-2.568482-3.0670182h-8.2159291c-.9691618,0-1.6391966.2014098-2.570475.5085129l-4.6184781,2.0460062v-9.2070375l4.6184781,2.04601c.9133256.3070993,1.6232521.512499,2.570475.512499h8.2159291c.6301583,0,1.272275-.255253,1.7568635-.7039397.4825802-.4466899.8116185-1.0908034.8116185-1.8545693v-1.0210081c0-1.5394902-1.3101584-2.5605021-2.568482-2.5605021l-10.7864041.017949v2.5604983l-3.2883738-1.8924566c-.1994129-.1156624-.3888606-.255253-.5523831-.4227617-.49854-.4965469-.7777211-1.1685786-.7777211-1.8725145v-2.9633217l15.4048822-.031908c5.1349709,0,7.1889532,2.7419699,7.1889532,7.6735265,0,3.6552955-1.4677018,5.1170143-4.1079645,5.1170143,2.6402627,0,4.1079645,1.3141522,4.1079645,4.6025222" fill="#24282b"/><polygon points="199.547382 106.6141328 198.005895 106.6141328 198.005895 108.658146 198.005895 110.5825106 198.005895 112.7521591 199.547382 112.7521591 199.547382 110.706149 205.7093364 110.706149 205.7093364 108.660139 199.547382 108.660139 199.547382 106.6141328" fill="#24282b"/><polygon points="198.0066937 98.4291 201.0876709 98.4291 201.0876709 101.4981113 198.0066937 101.4981113 198.0066937 103.5441213 205.7101352 103.5441213 205.7101352 101.4981113 202.629158 101.4981113 202.629158 98.4291 205.7101352 98.4291 205.7101352 96.38309 198.0066937 96.38309 198.0066937 98.4291" fill="#24282b"/><polygon points="198.0066937 93.3134817 205.7101352 93.3134817 205.7101352 87.1754592 204.1686481 87.1754592 204.1686481 91.2674716 202.629158 91.2674716 202.629158 87.6859614 201.0876709 87.6859614 201.0876709 91.2674716 199.5481808 91.2674716 199.5481808 87.1754592 198.0066937 87.1754592 198.0066937 93.3134817" fill="#24282b"/><path d="M285.972873,108.1610019h3.8008653c.4048203,0,.773735.237304.9372576.6082194l1.7827734,3.9962959h-9.2429278l1.782781-3.9962959c.1655156-.3709154.5324449-.6082194.9392507-.6082194" fill="#24282b"/><path d="M383.9018834,98.0709494v3.7849169c0,.4048127-.2393047.7717382-.6102124.9352607l-4.0122518,1.7767942v-9.2090305l4.0122518,1.776798c.3709078.1655156.6102124.530448.6102124.9352607" fill="#24282b"/><path d="M401.8748521,99.965205c0,6.9516416-1.9881807,12.6070799-8.9099111,12.7845578h-.3330243l-13.3509-.0299112v-2.9633217c0-.7019429.2791812-1.3739745.7777211-1.8725145.1635226-.1615295.3529702-.3071031.5523831-.4227617l3.2883738-1.8864774v2.5545191l8.9178834.0139591h.0279181c3.9863268-.1575396,4.3692081-4.760058,4.4070916-7.4122905.0019931-.279185.0019931-.5384241.0019931-.765759s0-.486574-.0019931-.765759c-.0378834-2.6562187-.4207648-7.2587408-4.4070916-7.4162804h-.0279181l-8.9178834.0139591v2.558509l-3.2883738-1.8904635c-.1994129-.1156624-.3888606-.2572461-.5523831-.4227617-.49854-.49854-.7777211-1.1685786-.7777211-1.8725183v-2.9633179l13.3509-.029915h.3330243c6.9217304.1774816,8.9099111,5.8369061,8.9099111,12.7885477" fill="#24282b"/></g></g></g></g></svg>